<svg id="Layer_1" data-name="Layer 1" xmlns="http://www.w3.org/2000/svg" viewBox="0 0 216.9 93"><defs><style>.cls-1{fill:#333;}.cls-2{fill:none;stroke:#2071dd;stroke-miterlimit:10;stroke-width:4px;}</style></defs><title>sandbox</title><path class="cls-1" d="M4.06,41.77a13.84,13.84,0,0,0,7,2.1c3.84,0,5.64-1.92,5.64-4.32s-1.5-3.9-5.4-5.34C6,32.35,3.58,29.47,3.58,25.95c0-4.68,3.78-8.52,10-8.52a14.5,14.5,0,0,1,7.14,1.8L19.4,23.11a11.3,11.3,0,0,0-5.94-1.68c-3.12,0-4.86,1.8-4.86,4,0,2.4,1.74,3.48,5.52,4.92,5,1.92,7.62,4.44,7.62,8.76,0,5.1-4,8.7-10.86,8.7a16.56,16.56,0,0,1-8.16-2Z"/><path class="cls-1" d="M44.62,47.17l-.42-3.66H44a10.82,10.82,0,0,1-8.88,4.32c-5.88,0-8.88-4.14-8.88-8.34,0-7,6.24-10.86,17.46-10.8v-.6c0-2.4-.66-6.72-6.6-6.72a14.47,14.47,0,0,0-7.56,2.16L28.4,20a18,18,0,0,1,9.54-2.58c8.88,0,11,6.06,11,11.88V40.21a40.9,40.9,0,0,0,.48,7Zm-.78-14.82c-5.76-.12-12.3.9-12.3,6.54a4.67,4.67,0,0,0,5,5,7.23,7.23,0,0,0,7-4.86,5.52,5.52,0,0,0,.3-1.68Z"/><path class="cls-1" d="M57.46,25.95c0-3-.06-5.46-.24-7.86H61.9l.3,4.8h.12a10.68,10.68,0,0,1,9.6-5.46c4,0,10.26,2.4,10.26,12.36V47.17H76.9V30.43c0-4.68-1.74-8.58-6.72-8.58a7.5,7.5,0,0,0-7.08,5.4,7.59,7.59,0,0,0-.36,2.46V47.17H57.46Z"/><path class="cls-1" d="M115.84,4.57v35.1c0,2.58.06,5.52.24,7.5h-4.74l-.24-5H111a10.74,10.74,0,0,1-9.9,5.7c-7,0-12.42-5.94-12.42-14.76-.06-9.66,5.94-15.6,13-15.6,4.44,0,7.44,2.1,8.76,4.44h.12V4.57Zm-5.28,25.38a9.31,9.31,0,0,0-.24-2.22,7.77,7.77,0,0,0-7.62-6.12c-5.46,0-8.7,4.8-8.7,11.22,0,5.88,2.88,10.74,8.58,10.74a7.94,7.94,0,0,0,7.74-6.3,9.16,9.16,0,0,0,.24-2.28Z"/><path class="cls-1" d="M124.48,47.17c.12-2,.24-4.92.24-7.5V4.57h5.22V22.81h.12c1.86-3.24,5.22-5.34,9.9-5.34,7.2,0,12.3,6,12.24,14.82,0,10.38-6.54,15.54-13,15.54-4.2,0-7.56-1.62-9.72-5.46h-.18l-.24,4.8Zm5.46-11.64a9.87,9.87,0,0,0,.24,1.92,8.15,8.15,0,0,0,7.92,6.18c5.52,0,8.82-4.5,8.82-11.16,0-5.82-3-10.8-8.64-10.8a8.42,8.42,0,0,0-8,6.48,10.43,10.43,0,0,0-.3,2.16Z"/><path class="cls-1" d="M194,18.13l4.14,6.24c1.08,1.62,2,3.12,2.94,4.74h.18c1-1.74,1.92-3.24,2.88-4.8l4.08-6.18h5.7l-9.9,14,10.2,15h-6l-4.26-6.54c-1.14-1.68-2.1-3.3-3.12-5h-.12c-1,1.74-2,3.3-3.06,5l-4.22,6.58h-5.8l10.32-14.82-9.84-14.22Z"/><rect class="cls-2" x="156.85" y="19.01" width="27" height="27"/><path class="cls-1" d="M20.65,74.62a11.07,11.07,0,0,0,5.57,1.68c3.07,0,4.51-1.54,4.51-3.46s-1.2-3.12-4.32-4.27c-4.18-1.49-6.14-3.79-6.14-6.58,0-3.74,3-6.82,8-6.82A11.6,11.6,0,0,1,34,56.62L32.94,59.7a9,9,0,0,0-4.75-1.34c-2.5,0-3.89,1.44-3.89,3.17,0,1.92,1.39,2.78,4.42,3.94,4,1.54,6.1,3.55,6.1,7,0,4.08-3.17,7-8.69,7a13.24,13.24,0,0,1-6.53-1.58Z"/><path class="cls-1" d="M46.19,68.1c.1,5.71,3.74,8.06,8,8.06A15.28,15.28,0,0,0,60.59,75l.72,3a18.82,18.82,0,0,1-7.73,1.44c-7.15,0-11.42-4.71-11.42-11.71s4.13-12.53,10.9-12.53c7.58,0,9.6,6.67,9.6,10.94a15.88,15.88,0,0,1-.14,2Zm12.39-3c0-2.69-1.1-6.87-5.86-6.87-4.27,0-6.14,3.94-6.48,6.87Z"/><path class="cls-1" d="M88,78.08a15.56,15.56,0,0,1-6.67,1.34c-7,0-11.57-4.75-11.57-11.86s4.9-12.34,12.48-12.34a14.12,14.12,0,0,1,5.86,1.2l-1,3.26a9.8,9.8,0,0,0-4.9-1.1c-5.33,0-8.21,3.94-8.21,8.78,0,5.38,3.46,8.69,8.06,8.69a12,12,0,0,0,5.18-1.15Z"/><path class="cls-1" d="M116,72.61c0,2.4,0,4.51.19,6.34h-3.74l-.24-3.79h-.1a8.74,8.74,0,0,1-7.68,4.32c-3.65,0-8-2-8-10.18V55.71h4.22V68.58C100.67,73,102,76,105.85,76a6.11,6.11,0,0,0,5.57-3.84,6.17,6.17,0,0,0,.38-2.16V55.71H116Z"/><path class="cls-1" d="M126.64,63c0-2.74,0-5.09-.19-7.25h3.7l.14,4.56h.19a7,7,0,0,1,6.43-5.09,4.58,4.58,0,0,1,1.2.14v4a6.36,6.36,0,0,0-1.44-.14c-3,0-5.09,2.26-5.67,5.42a11.93,11.93,0,0,0-.19,2V78.95h-4.18Z"/><path class="cls-1" d="M150.83,49.18a2.62,2.62,0,0,1-5.23,0,2.57,2.57,0,0,1,2.64-2.64A2.51,2.51,0,0,1,150.83,49.18Zm-4.7,29.76V55.71h4.22V78.95Z"/><path class="cls-1" d="M166,49v6.67h6v3.22h-6V71.46c0,2.88.82,4.51,3.17,4.51a9.37,9.37,0,0,0,2.45-.29l.19,3.17a10.35,10.35,0,0,1-3.75.58,5.85,5.85,0,0,1-4.56-1.78c-1.2-1.25-1.63-3.31-1.63-6V58.93h-3.6V55.71h3.6V50.14Z"/><path class="cls-1" d="M182.41,55.71l5.09,13.73C188,71,188.6,72.8,189,74.19h.1c.43-1.39.91-3.17,1.49-4.85l4.61-13.63h4.46l-6.34,16.56c-3,8-5.09,12-8,14.55a11.45,11.45,0,0,1-5.18,2.74L179.1,86a11.16,11.16,0,0,0,3.7-2.06,12.8,12.8,0,0,0,3.55-4.7,3,3,0,0,0,.34-1,3.67,3.67,0,0,0-.29-1.1L177.8,55.71Z"/></svg>