<svg id="Layer_1" data-name="Layer 1" xmlns="http://www.w3.org/2000/svg" viewBox="0 0 216.9 65.22"><defs><style>.cls-1{fill:#333;}.cls-2{fill:none;stroke:#2071dd;stroke-miterlimit:10;stroke-width:4px;}</style></defs><title>Artboard 1</title><path class="cls-1" d="M3.66,44.82a13.84,13.84,0,0,0,7,2.1c3.84,0,5.64-1.92,5.64-4.32s-1.5-3.9-5.4-5.34C5.64,35.4,3.18,32.52,3.18,29c0-4.68,3.78-8.52,10-8.52a14.5,14.5,0,0,1,7.14,1.8L19,26.16a11.3,11.3,0,0,0-5.94-1.68c-3.12,0-4.86,1.8-4.86,4,0,2.4,1.74,3.48,5.52,4.92,5,1.92,7.62,4.44,7.62,8.76,0,5.1-4,8.7-10.86,8.7a16.56,16.56,0,0,1-8.16-2Z"/><path class="cls-1" d="M44.22,50.22l-.42-3.66h-.18a10.82,10.82,0,0,1-8.88,4.32c-5.88,0-8.88-4.14-8.88-8.34,0-7,6.24-10.86,17.46-10.8v-.6c0-2.4-.66-6.72-6.6-6.72a14.47,14.47,0,0,0-7.56,2.16L28,23.1a18,18,0,0,1,9.54-2.58c8.88,0,11,6.06,11,11.88V43.26a40.9,40.9,0,0,0,.48,7ZM43.44,35.4c-5.76-.12-12.3.9-12.3,6.54a4.67,4.67,0,0,0,5,5,7.23,7.23,0,0,0,7-4.86,5.52,5.52,0,0,0,.3-1.68Z"/><path class="cls-1" d="M57.06,29c0-3-.06-5.46-.24-7.86H61.5l.3,4.8h.12a10.68,10.68,0,0,1,9.6-5.46c4,0,10.26,2.4,10.26,12.36V50.22H76.5V33.48c0-4.68-1.74-8.58-6.72-8.58a7.5,7.5,0,0,0-7.08,5.4,7.59,7.59,0,0,0-.36,2.46V50.22H57.06Z"/><path class="cls-1" d="M115.44,7.62v35.1c0,2.58.06,5.52.24,7.5h-4.74l-.24-5h-.12a10.74,10.74,0,0,1-9.9,5.7c-7,0-12.42-5.94-12.42-14.76-.06-9.66,5.94-15.6,13-15.6,4.44,0,7.44,2.1,8.76,4.44h.12V7.62ZM110.16,33a9.31,9.31,0,0,0-.24-2.22,7.77,7.77,0,0,0-7.62-6.12c-5.46,0-8.7,4.8-8.7,11.22,0,5.88,2.88,10.74,8.58,10.74a7.94,7.94,0,0,0,7.74-6.3,9.16,9.16,0,0,0,.24-2.28Z"/><path class="cls-1" d="M124.08,50.22c.12-2,.24-4.92.24-7.5V7.62h5.22V25.86h.12c1.86-3.24,5.22-5.34,9.9-5.34,7.2,0,12.3,6,12.24,14.82,0,10.38-6.54,15.54-13,15.54-4.2,0-7.56-1.62-9.72-5.46h-.18l-.24,4.8Zm5.46-11.64a9.87,9.87,0,0,0,.24,1.92,8.15,8.15,0,0,0,7.92,6.18c5.52,0,8.82-4.5,8.82-11.16,0-5.82-3-10.8-8.64-10.8a8.42,8.42,0,0,0-8,6.48,10.43,10.43,0,0,0-.3,2.16Z"/><path class="cls-1" d="M193.56,21.18l4.14,6.24c1.08,1.62,2,3.12,2.94,4.74h.18c1-1.74,1.92-3.24,2.88-4.8l4.08-6.18h5.7l-9.9,14,10.2,15h-6l-4.26-6.54c-1.14-1.68-2.1-3.3-3.12-5h-.12c-1,1.74-2,3.3-3.06,5L193,50.22H187.2L197.52,35.4l-9.84-14.22Z"/><rect class="cls-2" x="156.45" y="22.06" width="27" height="27"/></svg>